<?xml version="1.0" encoding="utf-8"?><svg viewBox="0 0 512 512" xmlns="http://www.w3.org/2000/svg" xmlns:xlink="http://www.w3.org/1999/xlink"><style>:root>svg{display:none}:root>svg:target{display:block}</style><svg viewBox="0 0 18 20" id="Document" xmlns="http://www.w3.org/2000/svg"><path d="M13.191 0C16.28 0 18 1.78 18 4.83v10.33c0 3.1-1.72 4.84-4.809 4.84H4.81C1.77 20 0 18.26 0 15.16V4.83C0 1.78 1.77 0 4.81 0h8.381zM5.08 13.74a.795.795 0 00-.75 1.21c.16.25.45.4.75.36h7.84c.399-.04.7-.381.7-.78 0-.41-.301-.75-.7-.79H5.08zm7.84-4.561H5.08a.781.781 0 000 1.561h7.84a.781.781 0 000-1.561zM8.069 4.65H5.08v.01a.78.78 0 000 1.56h2.989c.431 0 .781-.35.781-.791a.781.781 0 00-.781-.779z" fill="#fff"/></svg><svg viewBox="0 0 512.001 512.001" id="cart" xmlns="http://www.w3.org/2000/svg"><path d="M503.142 79.784c-7.303-8.857-18.128-13.933-29.696-13.933H176.37c-6.085 0-11.023 4.938-11.023 11.023s4.938 11.023 11.023 11.023h297.07c5.032 0 9.541 2.1 12.688 5.914 3.197 3.88 4.475 8.995 3.511 13.972l-44.054 220.282c-1.709 7.871-8.383 13.366-16.232 13.366h-245.03L83.158 36.854C77.69 21.234 62.886 10.74 45.932 10.74h-.017c-14.38.496-28.963.491-32.535.248-3.555-.772-7.397.22-10.152 2.976-4.305 4.305-4.305 11.282 0 15.587 3.412 3.412 4.564 4.564 43.068 3.23 7.22 0 13.674 4.564 15.995 11.188l103.618 311.962a11.025 11.025 0 0010.461 7.545h252.982c18.31 0 33.841-12.638 37.815-30.909l44.109-220.525c2.227-11.529-.732-23.285-8.134-32.258z"/><path d="M424.392 424.11H223.77c-6.785 0-13.162-4.674-15.46-11.233l-21.495-63.935c-1.94-5.771-8.207-8.885-13.961-6.934-5.771 1.935-8.874 8.19-6.934 13.961l21.539 64.061c5.473 15.625 20.062 26.119 36.31 26.119h200.622c6.085 0 11.023-4.933 11.023-11.018s-4.937-11.021-11.022-11.021z"/><path d="M231.486 424.104c-21.275 0-38.581 17.312-38.581 38.581s17.306 38.581 38.581 38.581 38.581-17.312 38.581-38.581-17.306-38.581-38.581-38.581zm0 55.116c-9.116 0-16.535-7.419-16.535-16.535s7.419-16.535 16.535-16.535 16.535 7.419 16.535 16.535c0 9.117-7.419 16.535-16.535 16.535zM424.392 424.104c-21.269 0-38.581 17.312-38.581 38.581s17.312 38.581 38.581 38.581c21.269 0 38.581-17.312 38.581-38.581s-17.312-38.581-38.581-38.581zm0 55.116c-9.116 0-16.535-7.419-16.535-16.535s7.419-16.535 16.535-16.535 16.535 7.419 16.535 16.535c0 9.117-7.419 16.535-16.535 16.535z"/></svg><svg viewBox="0 0 117 22" id="logo" xmlns="http://www.w3.org/2000/svg"><path d="M1 1h17L8 18h9v4H0L10 6H1zm32 21c-6.075 0-11-4.925-11-11 0-.666.07-1.315.183-1.949l5.726 5.09c1.057 1.71 2.933 2.859 5.09 2.859a6 6 0 100-12c-2.243 0-4.176 1.246-5.205 3.07l-3.822-3.345A10.98 10.98 0 0133 0c6.075 0 11 4.925 11 11s-4.925 11-11 11zm17 0V12l5 3v7zm0-22l14 11V0h5v22L50 6zm41 4H81v5h9v4h-9v5h10v4H76V0h15zm26 18h-6l-5-6.875L101 22h-6l8-11-8-11h6l5 6.875L111 0h6l-8 11z"/></svg><svg viewBox="0 0 20 14" id="menu-bars" xmlns="http://www.w3.org/2000/svg"><path stroke="#fff" stroke-width="2" d="M0 1h20M0 7h20M0 13h20"/></svg><svg viewBox="0 0 18 18" id="phone" xmlns="http://www.w3.org/2000/svg"><path d="M17.487 14.14l-4.065-3.696a1 1 0 00-1.391.043l-2.393 2.461c-.576-.11-1.734-.471-2.926-1.66-1.192-1.193-1.553-2.354-1.66-2.926l2.459-2.394a1 1 0 00.043-1.391L3.859.513A1 1 0 002.468.426L.298 2.287a1 1 0 00-.29.649c-.015.25-.301 6.172 4.291 10.766C8.305 17.707 13.323 18 14.705 18c.202 0 .326-.006.359-.008a.992.992 0 00.648-.291l1.86-2.171a.997.997 0 00-.085-1.39z"/></svg><svg viewBox="0 0 18 19" id="search" xmlns="http://www.w3.org/2000/svg"><path d="M13.7 13.363a1 1 0 10-1.4 1.428l1.4-1.428zm2.6 5.35a1 1 0 101.4-1.427l-1.4 1.428zm-7.967-2.328c4.584 0 8.334-3.65 8.334-8.193h-2c0 3.402-2.817 6.193-6.334 6.193v2zm8.334-8.193C16.667 3.65 12.917 0 8.333 0v2c3.517 0 6.334 2.79 6.334 6.192h2zM8.333 0C3.75 0 0 3.65 0 8.192h2C2 4.791 4.817 2 8.333 2V0zM0 8.192c0 4.543 3.75 8.193 8.333 8.193v-2C4.817 14.385 2 11.594 2 8.192H0zm12.3 6.599l4 3.923 1.4-1.428-4-3.923-1.4 1.428z"/><defs><linearGradient id="fpaint0_linear" x1="9.031" y1="18" x2="9.031" y2="1" gradientUnits="userSpaceOnUse"><stop stop-color="#C3063C"/><stop offset="0" stop-color="#C3063C"/><stop offset="1" stop-color="#F81E5C"/></linearGradient></defs></svg><svg viewBox="0 0 512.001 512.001" id="svg" xmlns="http://www.w3.org/2000/svg"><path d="M494.145 80.27L426.069 9.296C420.4 3.388 412.457 0 404.271 0H134.884c-16.654 0-30.203 13.549-30.203 30.203v94.531H48.098c-21.311 0-38.649 17.339-38.649 38.65v74.181c0 21.311 17.338 38.649 38.649 38.649h56.583v205.584c0 16.654 13.549 30.203 30.203 30.203h337.465c16.654 0 30.203-13.549 30.203-30.203V101.177a30.074 30.074 0 00-8.407-20.907zM413.43 39.491l50.485 52.634H413.43V39.491zM48.098 246.192c-4.757 0-8.627-3.87-8.627-8.627v-74.181c0-4.757 3.87-8.628 8.627-8.628h190.19c4.757 0 8.627 3.871 8.627 8.628v74.181c0 4.757-3.87 8.627-8.627 8.627H48.098zM472.53 481.797a.182.182 0 01-.181.181H134.884a.181.181 0 01-.181-.181V276.214h103.585c21.311 0 38.649-17.338 38.649-38.649v-74.181c0-21.312-17.338-38.65-38.649-38.65H134.703V30.203c0-.1.081-.181.181-.181H383.41v76.675l.002.219-.002.219c0 8.29 6.721 15.011 15.011 15.011h74.11v359.651z"/><path d="M75.232 181.391c0-3.187 2.981-6.169 10.281-6.169 8.43 0 10.384 3.907 14.084 3.907 4.524 0 6.375-5.655 6.375-8.431 0-8.019-15.011-9.048-20.459-9.048-12.852 0-26.32 5.86-26.32 21.282 0 24.058 32.591 21.899 32.591 34.339 0 4.936-5.243 6.786-9.973 6.786-9.562 0-12.646-7.609-17.478-7.609-3.907 0-6.991 5.141-6.991 8.636 0 6.786 11.309 13.366 24.778 13.366 14.907 0 25.704-8.02 25.704-22.825 0-25.906-32.592-23.954-32.592-34.234zM160.051 162.269c-2.571 0-4.627.823-5.244 2.981l-14.29 52.742-14.394-52.742c-.616-2.16-2.673-2.981-5.243-2.981-4.421 0-10.28 2.776-10.28 6.58 0 .308.103.72.205 1.131l19.226 62.715c1.13 3.599 5.757 5.346 10.487 5.346s9.356-1.747 10.487-5.346l19.122-62.715c.104-.411.206-.823.206-1.131-.001-3.804-5.862-6.58-10.282-6.58zM221.12 197.943h-17.274c-3.084 0-4.832 3.187-4.832 6.169 0 3.187 1.747 6.169 4.832 6.169h6.066v3.495c0 6.991-3.496 10.281-9.253 10.281s-9.151-3.29-9.151-10.281V186.53c0-6.991 3.393-10.281 9.253-10.281 8.739 0 9.048 5.552 9.151 9.254.104 3.701 3.702 4.832 8.02 4.832 5.449 0 8.02-1.439 8.02-7.609 0-13.057-11.104-20.46-25.806-20.46-13.469 0-24.675 6.58-24.675 24.264v27.246c0 17.684 11.001 24.264 25.188 24.264 14.188 0 25.291-6.58 25.291-24.264V202.98c.001-2.672-1.746-5.037-4.83-5.037z"/></svg><svg viewBox="0 0 490.667 490.667" id="user" xmlns="http://www.w3.org/2000/svg"><path d="M245.333 0C110.059 0 0 110.059 0 245.333s110.059 245.333 245.333 245.333 245.333-110.059 245.333-245.333S380.608 0 245.333 0zm0 469.333c-123.52 0-224-100.48-224-224s100.48-224 224-224 224 100.48 224 224-100.48 224-224 224z"/><path d="M245.333 234.667c-76.459 0-138.667 62.208-138.667 138.667 0 5.888 4.779 10.667 10.667 10.667S128 379.221 128 373.333C128 308.629 180.629 256 245.333 256s117.333 52.629 117.333 117.333c0 5.888 4.779 10.667 10.667 10.667S384 379.221 384 373.333c0-76.458-62.208-138.666-138.667-138.666zM245.333 64c-41.173 0-74.667 33.493-74.667 74.667s33.493 74.667 74.667 74.667S320 179.84 320 138.667 286.507 64 245.333 64zm0 128C215.936 192 192 168.064 192 138.667s23.936-53.333 53.333-53.333 53.333 23.936 53.333 53.333S274.731 192 245.333 192z"/></svg></svg>